<svg id="Layer_1" data-name="Layer 1" xmlns="http://www.w3.org/2000/svg" viewBox="0 0 1026.38 955.91"><defs><style>.cls-1{fill:#171716;}.cls-2{fill:#f8f8f8;}.cls-3{fill:#eaeaea;}</style></defs><rect class="cls-1" width="1026.38" height="955.91" rx="130.21"/><path class="cls-2" d="M997.48,731.39c67.77,57.87,134,117.82,200.75,176.9L1255.4,959c9.32,8.26,20.68,16.62,28.62,26.17l-18.9.15c-12.55-10.89-24.8-22.12-37.53-32.82,1.24,88.66.25,177.48,0,266.15-22.32,7.16-45.14,7.52-68.32,6.41,19.26-4.15,38.12-9.19,56.12-17.36l.13-266.41c-71.6-64.51-145.32-126.79-217.56-190.6l-1.07.13c-39,36.92-76.63,75.73-114.82,113.54-12.08,12-41.17,37.21-49.27,49.92l.34,1,3.35-1.44.9.43c.57,36.35,0,72.81,0,109.17v219c-4.43,2.19-8.76,4.66-13.12,7,1.66-40,.34-80.54.34-120.61l-.06-208.92-79.42,76-13.29-.54c22.4-21.31,43.42-44.49,65.4-66.29Z" transform="translate(-506.89 -595.74)"/><path class="cls-2" d="M925.53,922.4C935.69,911,947.26,900.64,958.26,890c15.74-15.21,31.38-30.67,47.75-45.2,29.27,26.14,59.17,51.75,87.85,78.51l.06,123.08c4.12,2.56,8.25,5.08,12.23,7.86,8.47,6.7,15.11,12,20.3,21.75l.26.48a38.56,38.56,0,0,1,2.42,10.53c1.29,14.88-9.21,26.33-18.26,36.69,3.47-6.71,6.94-13.43,8.54-20.88,2.47-11.43-.6-19.72-6.8-29.09-.09,7.49-.87,14-3.79,21-13.76,32.86-58,51.28-89.64,60.46-23.69,6.88-47.59,10.5-70.49,20.17,10.48-7.92,21.6-15,33.72-20.21,33.41-14.3,70.44-19.81,99.31-43.88,9.08-7.57,16.58-17.25,17.32-29.49.9-14.92-8.54-25.48-17.58-36,.75-39.2.12-78.52.14-117.74-10.46-9.5-20.79-19.3-31.78-28.2-13-14.27-29.86-25-43.28-38.77l-7.92,7.37c13.7,11.44,26.31,24.56,40.47,35.39q11,10,22.25,19.67l.12,78.35c0,15.53-.64,31.31.54,46.78,8,9.16,16,18.9,14.94,31.9-1,12.6-9.86,21.89-18,30.7,5.91-11.8,10.86-23.89,6.48-37.2-3.07-9.34-9.55-16.27-16.07-23.33l-.13-121.79-59-52.19c-17.48,16.89-34.47,35.11-52.71,51.1l-.08,248.31c-4.09,2.15-8.16,4.26-12.07,6.73Z" transform="translate(-506.89 -595.74)"/><path class="cls-2" d="M1112,1037.78c.08-16-1.94-84.79,1.06-94,2-1.46,2.48-1.88,4.9-2.18,28.45,24.06,53.32,52.07,79.34,78.6,0,29.27-.44,58.59,0,87.85.2,13.45,3.21,27.85.4,41.12-2,9.72-8.84,18.81-15.78,25.71a63.16,63.16,0,0,1-12.73,10.27l1.22-4.35c-1.44-1.48-1.41-1.27-3.26-1.73l1.88-4.72c13.52-16.31,22.79-29.24,20.57-51.24-.7-6.92-2.11-13.76-2.53-20.71-.91-15.24-.38-30.79-.4-46.07,0-10.15-.6-20.82.48-30.91-19.73-21.37-40.62-44.22-63.1-62.65l0,87.54c16.14,11.48,38,26.19,41.63,47.3,1.91,11.27-2.52,21.94-9.23,30.8-12.87,17-33.25,29.36-52,38.74q-16.49,8.12-33.62,14.81c-24.86,10-100,35.65-96.22,69.29.72,6.32,4.08,12.09,7.33,17.44-8.07-7-16.71-14.54-17.8-25.92-.6-6.15,1.38-11.39,4.2-16.73-2.47-.9-5.5-3.93-7.65-5.55-25.15,14.06-47.21,31.37-73.86,43.13-37.87,16.73-76.93,18-116.56,27-17.42,3.95-33.87,11.59-51.06,15.57a18.72,18.72,0,0,1-4.29-.14c-2.78-.75-2.94-1.53-4.12-3.91,31.2-16.6,65.53-24.83,99.94-31.61,19.76-3.89,39.52-7.31,58.67-13.73,41-13.72,62.88-37.92,100.91-54.61,43.37-19,92-26,134.19-47.77,11-5.69,21.69-12.59,30.38-21.52,9-9.27,16.1-21.33,15.5-34.66-.65-14.4-9.85-25.13-19.93-34.35a28.8,28.8,0,0,0-4.9,1.88,26.67,26.67,0,0,0,2.48,5.27,10.89,10.89,0,0,1-1.36,5.45l-.26-.48c-5.19-9.75-11.83-15-20.3-21.75a15.31,15.31,0,0,1,3.26-5.7C1112.18,1045.63,1109.72,1041.33,1112,1037.78Z" transform="translate(-506.89 -595.74)"/><path class="cls-2" d="M905.09,928.38c1.18,1.24,1.11,2.92,1.16,4.6.92,30,0,60.47,0,90.57l0,173.65c-4.21,3.43-8,7.29-11.85,11.11l.26-253a251.38,251.38,0,0,0-21.27,20c-4.86,5.26-6.4,7.59-6.12,15l0,237.45-12,6.8,0-258.32C871.9,960.3,888,943.74,905.09,928.38Z" transform="translate(-506.89 -595.74)"/><path class="cls-2" d="M951.87,1234.64a18,18,0,0,1-1.17,4.25c-2.41,5.92-5.28,13.1-3.33,19.55,2.23,7.34,8.81,12.49,15.3,15.93,26.09,13.86,62,17,91.05,20.81,82.09,10.91,162.39,17,244.62,4,20.54-3.27,41.35-7.12,61.21-13.37a122.27,122.27,0,0,1-17.69,11.57,231.78,231.78,0,0,1-39.18,13.54,396.14,396.14,0,0,1-87.18,11.37c-46.77,1.21-93.49-4.35-139.81-10.24-28.31-3.6-57.08-6.94-84.75-14.1-15.17-3.92-30.77-9.25-44.22-17.41-8.58-5.2-11.33-10.15-13.61-19.71.32-1.51.67-3,1.06-4.52C936.89,1246.13,943.07,1239.9,951.87,1234.64Z" transform="translate(-506.89 -595.74)"/><path class="cls-2" d="M1345.13,1315.6l.62.38c-.16.26-.3.54-.48.79-7.43,10.66-23.21,18.89-34.47,24.55-80.42,40.43-171.84,11-255.79,2.32-24.08-2.47-48.37-4.1-72.41-.27a21.49,21.49,0,0,1-6.15.16c4.07-3.19,13.2-4.38,18.29-5.41,81.15-16.46,161.11,13.44,242.43,7.92C1275.6,1343.43,1310.84,1332.84,1345.13,1315.6Z" transform="translate(-506.89 -595.74)"/><path class="cls-2" d="M775.24,1298.18c39.16-6.18,78.07-6.67,117.09,1.38,34.61,7.14,68.86,18,104.1,21.72-14.88,2.91-29.3,4.82-44.51,3.83-21-1.37-41-7.66-61.22-13.07-36.29-9.71-76.48-16.23-114-10.3Z" transform="translate(-506.89 -595.74)"/><path class="cls-2" d="M1152.06,1155.65c-.54,3.41-3.64,6.95-5.74,9.68-24.82,32.13-66.73,37.61-97.43,60.7-8,6-15.82,15-18.16,25-.81,3.41-.46,7-.94,10.5l-2.11-2.45c-3.83-5.69-6.25-11.23-5.34-18.24,3.45-26.69,61.21-44.53,83.32-55.85C1122.19,1176.48,1137.59,1167.39,1152.06,1155.65Z" transform="translate(-506.89 -595.74)"/><path class="cls-2" d="M807.6,1338.14c54.24-20,96.38,2.5,146.74,19.84a349.23,349.23,0,0,0,50.55,12.84l-1.06,1.31-9.86.48c-21.47-.64-44.25-5.81-64.39-13.19-22.36-8.18-43.71-18.05-67.51-21.66C843.84,1335,825.83,1337.26,807.6,1338.14Z" transform="translate(-506.89 -595.74)"/><path class="cls-2" d="M979.51,1010.77l36.25.18.19,38.52H979.54Q979.39,1030.11,979.51,1010.77Z" transform="translate(-506.89 -595.74)"/><path class="cls-3" d="M1112.94,1211.49c19.62-12.22,38.71-21.39,56.12-37.17l-1.88,4.72c1.85.46,1.82.25,3.26,1.73l-1.22,4.35C1155.11,1197.79,1131.14,1207.17,1112.94,1211.49Z" transform="translate(-506.89 -595.74)"/><path class="cls-3" d="M667,1333.43c11.29-13,29-22.85,43.84-31.28,1.18,2.38,1.34,3.16,4.12,3.91a18.72,18.72,0,0,0,4.29.14C701.89,1316,684.33,1322.53,667,1333.43Z" transform="translate(-506.89 -595.74)"/><path class="cls-2" d="M1149.58,1022.37a20.9,20.9,0,0,1,7.09.59c2.37,2.75,2.63,6,2.36,9.45-.36,4.73-.32,9.44-.32,14.18a31.7,31.7,0,0,1-4.46.13c-1.45-.12-2.57-.08-3.43-1.32-1.74-2.53-2-5.56-1.69-8.53C1149.56,1032,1149.53,1027.21,1149.58,1022.37Z" transform="translate(-506.89 -595.74)"/><path class="cls-3" d="M745.4,1306.8a172,172,0,0,1,29.84-8.62l1.42,3.56C766.21,1303.16,755.8,1305,745.4,1306.8Z" transform="translate(-506.89 -595.74)"/><path class="cls-3" d="M1004.89,1370.82l15.44,1.63a80.14,80.14,0,0,1-26.36.16l9.86-.48Z" transform="translate(-506.89 -595.74)"/></svg>